<svg xmlns="http://www.w3.org/2000/svg" xmlns:xlink="http://www.w3.org/1999/xlink" xmlns:lucid="lucid" width="1272" height="589.1"><g transform="translate(-260 -349)" lucid:page-tab-id="0_0"><path d="M739.12 509.87h-59.06v.13H463v94.36h-3.5M739.1 509.87h1.02" stroke="#000" stroke-width="2" fill="none"/><path d="M444.24 604.36l14.26-4.63V609z" stroke="#000" stroke-width="2"/><use xlink:href="#a" transform="matrix(1,0,0,1,544.564444095718,484.40000000000003) translate(0 14.4)"/><path d="M1130 670l-50-50v-70l50.56 30.34L1180 610v120l-100 60v-70z" stroke="#000" stroke-width="2" fill="#fff"/><use xlink:href="#b" transform="matrix(1,0,0,1,1080,550) translate(50.025 78.4)"/><use xlink:href="#c" transform="matrix(1,0,0,1,1080,550) translate(55.025 78.4)"/><path d="M1182 670h118.5" stroke="#000" stroke-width="2" fill="none"/><path d="M1182.03 671H1181v-2h1.03z"/><path d="M1315.76 670l-14.26 4.64v-9.28z" stroke="#000" stroke-width="2"/><use xlink:href="#d" transform="matrix(1,0,0,1,1226.5276112308065,644.6666666666667) translate(0 14.222222222222223)"/><use xlink:href="#e" transform="matrix(1,0,0,1,1226.5276112308065,644.6666666666667) translate(39.4567901234568 14.222222222222223)"/><path d="M1160.97 595.82h-2v-21.44h2zm0-43.04h-2V361H361v206.52h-2V359h801.97z"/><path d="M1160.97 597.42l-2-1.2v-.43h2zM360 582.8l-4.64-14.28h9.28z"/><path d="M360 586.02l-6-18.5h12zm-3.26-16.5l3.26 10.03 3.26-10.03z"/><use xlink:href="#f" transform="matrix(1,0,0,1,1154.4967054127221,552.7797744609506) translate(0 14.4)"/><path d="M1131 577.83h-2v-16.56h2zm0-38.16h-2V381H381.55v186.52h-2V379H1131z"/><path d="M1131 579.43l-2-1.2v-.42h2zM380.55 582.8l-4.64-14.28h9.28z"/><path d="M380.55 586.02l-6-18.5h12zm-3.26-16.5l3.25 10.03 3.26-10.03z"/><use xlink:href="#g" transform="matrix(1,0,0,1,1123.525,539.6717121991629) translate(0 14.4)"/><path d="M800 550h160v240H800z" stroke="#000" stroke-width="2" fill="#fff"/><use xlink:href="#h" transform="matrix(1,0,0,1,805,555) translate(37.074999999999996 118.60000000000001)"/><path d="M962 589.22h98.5" stroke="#000" stroke-width="2" fill="none"/><path d="M962.03 590.22H961v-2h1.03z"/><path d="M1075.76 589.22l-14.26 4.64v-9.27z" stroke="#000" stroke-width="2"/><use xlink:href="#i" transform="matrix(1,0,0,1,976.925,563.6244232522755) translate(0 14.4)"/><path d="M1320 550h160v240h-160z" stroke="#000" stroke-width="2" fill="#fff"/><use xlink:href="#j" transform="matrix(1,0,0,1,1325,555) translate(21.099999999999994 22.4)"/><use xlink:href="#k" transform="matrix(1,0,0,1,1325,555) translate(64.05 22.4)"/><path d="M962 740.97h38.5" stroke="#000" stroke-width="2" fill="none"/><path d="M962.03 741.97H961v-2h1.03z"/><path d="M1015.76 740.97l-14.26 4.63v-9.27z" stroke="#000" stroke-width="2"/><use xlink:href="#l" transform="matrix(1,0,0,1,971.8843009704719,715.3671496559474) translate(0 14.4)"/><path d="M1056.05 755.95h4.45" stroke="#000" stroke-width="2" fill="none"/><path d="M1056.08 756.95h-1.03v-2h1.03z"/><path d="M1075.76 755.95l-14.26 4.64v-9.28z" stroke="#000" stroke-width="2"/><path d="M1482 670h39v229.5h-267.45" stroke="#000" stroke-width="2" fill="none"/><path d="M1482.03 671H1481v-2h1.03z"/><path d="M1238.3 899.5l14.25-4.62v9.27z" stroke="#000" stroke-width="2"/><use xlink:href="#m" transform="matrix(1,0,0,1,1439.1,873.9127126117173) translate(0 14.4)"/><use xlink:href="#n" transform="matrix(1,0,0,1,1439.1,873.9127126117173) translate(44.900000000000006 14.4)"/><path d="M1272.47 671v198.64h-19.92M1272.47 671.03V670" stroke="#000" stroke-width="2" fill="none"/><path d="M1237.3 869.64l14.25-4.63v9.28z" stroke="#000" stroke-width="2"/><path d="M1054.05 776.38c0 7.52-7.62 13.62-17.03 13.62-9.4 0-17.02-6.1-17.02-13.62v-40.86c0-7.52 7.62-13.62 17.02-13.62 9.4 0 17.03 6.1 17.03 13.62z" stroke="#000" stroke-width="2" fill="#fff"/><use xlink:href="#o" transform="matrix(6.123233995736766e-17,1,-1,6.123233995736766e-17,1054.0496641553693,721.9006716892613) translate(19.72222222222222 14.666666666666668)"/><path d="M1020 731h20v11.07h-20z" stroke="#000" stroke-opacity="0" stroke-width="2" fill="#fff" fill-opacity="0"/><use xlink:href="#p" transform="matrix(1,0,0,1,1025,736) translate(1.2962962962962958 10.666666666666668)"/><path d="M1020 758.9h20v11.08h-20z" stroke="#000" stroke-opacity="0" stroke-width="2" fill="#fff" fill-opacity="0"/><use xlink:href="#q" transform="matrix(1,0,0,1,1025,763.9006716892613) translate(1.2962962962962958 10.666666666666668)"/><path d="M1200 863.62c0-7.52 7.62-13.62 17.02-13.62 9.4 0 17.03 6.1 17.03 13.62v40.86c0 7.52-7.62 13.62-17.03 13.62-9.4 0-17.02-6.1-17.02-13.62z" stroke="#000" stroke-width="2" fill="#fff"/><use xlink:href="#o" transform="matrix(6.123233995736766e-17,-1,1,6.123233995736766e-17,1200,918.0993283107384) translate(19.72222222222222 14.666666666666668)"/><path d="M1234.05 880.27h-20V869.2h20z" stroke="#000" stroke-opacity="0" stroke-width="2" fill="#fff" fill-opacity="0"/><use xlink:href="#p" transform="matrix(-1,1.2246467991473532e-16,-1.2246467991473532e-16,-1,1229.0496641553693,875.2731528545315) translate(1.2962962962962958 10.666666666666668)"/><path d="M1214.05 889.2h20v11.07h-20z" stroke="#000" stroke-opacity="0" stroke-width="2" fill="#fff" fill-opacity="0"/><use xlink:href="#q" transform="matrix(1,0,0,1,1219.0496641553693,894.1986566214773) translate(1.2962962962962958 10.666666666666668)"/><path d="M520 527.02h160v240H520z" stroke="#000" stroke-width="2" fill="#fff"/><use xlink:href="#r" transform="matrix(1,0,0,1,525,532.0248320776847) translate(33.55 22.4)"/><use xlink:href="#k" transform="matrix(1,0,0,1,525,532.0248320776847) translate(42.574999999999996 44)"/><path d="M682 647.02h58v-80.95h40.5" stroke="#000" stroke-width="2" fill="none"/><path d="M682.03 648.02H681v-2h1.03z"/><path d="M795.76 566.07l-14.26 4.64v-9.26z" stroke="#000" stroke-width="2"/><use xlink:href="#s" transform="matrix(1,0,0,1,756.4771890742657,540.4738926584603) translate(0 14.4)"/><path d="M741 639.3h39.5M741.03 639.3H740" stroke="#000" stroke-width="2" fill="none"/><path d="M795.76 639.3l-14.26 4.65v-9.27z" stroke="#000" stroke-width="2"/><use xlink:href="#t" transform="matrix(1,0,0,1,756.8833333333325,613.7112622122012) translate(0 14.4)"/><path d="M912.2 491H741.1v74.07h-2V489H910.2v-5.54h2z"/><path d="M741.12 566.07h-2v-1.02h2zM915.83 482.46h-9.27l4.63-14.27z"/><path d="M917.2 483.46h-12.02l6-18.5zm-9.27-2h6.52l-3.26-10.03z"/><use xlink:href="#u" transform="matrix(1,0,0,1,753.3249999999989,464.4) translate(0 14.4)"/><path d="M1002.98 430c0 22.1-26.87 40-60 40-33.14 0-60-17.9-60-40s26.86-40 60-40c33.13 0 60 17.9 60 40z" stroke="#0c7cba" stroke-width="2" fill="#fff"/><use xlink:href="#v" transform="matrix(1,0,0,1,887.9751679223153,395) translate(16.124999999999993 38.6)"/><path d="M961.34 508.25h137.43V541h-2v-30.75H959.34v-40h2z" fill="#0c7cba"/><path d="M961.34 470.27h-2v-.83l2-.4zM1097.77 556.26l-4.64-14.27h9.27z" fill="#0c7cba"/><path d="M1097.77 559.5l-6-18.5h12zm-3.26-16.5l3.27 10.02 3.26-10.03z" fill="#0c7cba"/><use xlink:href="#w" transform="matrix(1,0,0,1,968.3382977737203,476.44731553358974) translate(0 14.4)"/><use xlink:href="#x" transform="matrix(1,0,0,1,968.3382977737203,476.44731553358974) translate(39.95 14.4)"/><path d="M942.98 472v48h94.04v64.22c2.77 0 5 2.24 5 5 0 2.77-2.23 5-5 5V702.4" stroke="#0c7cba" stroke-width="2" fill="none"/><path d="M942.97 471l1-.03v1.06h-2v-1.07z" fill="#0c7cba"/><path d="M1037.02 717.66l-4.63-14.27h9.26z" stroke="#0c7cba" stroke-width="2" fill="#0c7cba"/><use xlink:href="#y" transform="matrix(1,0,0,1,951.9359996239913,524.0000000000001) translate(0 14.4)"/><path d="M600 769.02v73.05h142.04v-21.5" stroke="#000" stroke-width="2" fill="none"/><path d="M601 769.05h-2v-1.03h2z"/><path d="M742.04 805.3l4.64 14.28h-9.27z" stroke="#000" stroke-width="2"/><use xlink:href="#z" transform="matrix(1,0,0,1,608.0749999999999,846.0744960776848) translate(0 14.4)"/><use xlink:href="#A" transform="matrix(1,0,0,1,608.0749999999999,846.0744960776848) translate(88.85000000000001 14.4)"/><path d="M739.1 648.02v58h41.4M739.1 648.05v-1.03" stroke="#000" stroke-width="2" fill="none"/><path d="M795.76 706.02l-14.26 4.64v-9.27z" stroke="#000" stroke-width="2"/><use xlink:href="#B" transform="matrix(1,0,0,1,747.112673508745,678.5309953233123) translate(0 14.4)"/><path d="M777.45 767.02c7.53 0 13.62 7.63 13.62 17.03 0 9.4-6.1 17.02-13.62 17.02H736.6c-7.53 0-13.62-7.62-13.62-17.02 0-9.4 6.1-17.03 13.62-17.03z" stroke="#000" stroke-width="2" fill="#fff"/><use xlink:href="#o" transform="matrix(1,0,0,1,722.9751679223153,767.0248320776847) translate(19.72222222222222 14.666666666666668)"/><path d="M760 781.54h20v11.07h-20z" stroke="#000" stroke-opacity="0" stroke-width="2" fill="#fff" fill-opacity="0"/><use xlink:href="#p" transform="matrix(1,0,0,1,765,786.5372481165268) translate(1.2962962962962958 10.666666666666668)"/><path d="M733 781.54h20v11.07h-20z" stroke="#000" stroke-opacity="0" stroke-width="2" fill="#fff" fill-opacity="0"/><use xlink:href="#q" transform="matrix(1,0,0,1,738,786.537248116527) translate(1.2962962962962958 10.666666666666668)"/><path d="M812 555.42h70.98v26.6H812z" stroke="#000" stroke-opacity="0" stroke-width="2" fill="#fff" fill-opacity="0"/><use xlink:href="#C" transform="matrix(1,0,0,1,812,555.4248320776845) translate(0 16.166666666666668)"/><use xlink:href="#D" transform="matrix(1,0,0,1,812,555.4248320776845) translate(20.703703703703702 16.166666666666668)"/><path d="M809 626.42h120v26.6H809z" stroke="#000" stroke-opacity="0" stroke-width="2" fill="#fff" fill-opacity="0"/><use xlink:href="#E" transform="matrix(1,0,0,1,809,626.4248320776845) translate(0 16.166666666666668)"/><use xlink:href="#D" transform="matrix(1,0,0,1,809,626.4248320776845) translate(20.703703703703702 16.166666666666668)"/><path d="M757.02 765.02v-14.4h23.48" stroke="#000" stroke-width="2" fill="none"/><path d="M758.02 766.02h-2V765h2z"/><path d="M795.76 750.63l-14.26 4.64V746z" stroke="#000" stroke-width="2"/><path d="M810 740.42h120v26.6H810z" stroke="#000" stroke-opacity="0" stroke-width="2" fill="#fff" fill-opacity="0"/><use xlink:href="#F" transform="matrix(1,0,0,1,810,740.4248320776846) translate(0 16.166666666666668)"/><use xlink:href="#G" transform="matrix(1,0,0,1,810,740.4248320776846) translate(31.814814814814817 16.166666666666668)"/><path d="M742.04 841.07V840H997v-66.66h3.5M742.04 841.05v1.02" stroke="#000" stroke-width="2" fill="none"/><path d="M1015.76 773.34l-14.26 4.63v-9.27z" stroke="#000" stroke-width="2"/><path d="M922.8 469.66v42.38h-45.27v24.88" stroke="#0c7cba" stroke-width="2" fill="none"/><path d="M923.8 468.87v.8h-2v-1.22z" fill="#0c7cba"/><path d="M877.53 552.2l-4.64-14.28h9.26z" stroke="#0c7cba" stroke-width="2" fill="#0c7cba"/><use xlink:href="#H" transform="matrix(1,0,0,1,852.418873427383,489.2219105689436) translate(0 14.4)"/><path d="M1401 530.5h-2V419.62h-396.4v-2H1401z" fill="#0c7cba"/><path d="M1002.63 419.62h-.65l-.38-1-.48-1h1.5zM1400 545.76l-4.64-14.26h9.28z" fill="#0c7cba"/><path d="M1400 549l-6-18.5h12zm-3.26-16.5l3.26 10.03 3.26-10.03z" fill="#0c7cba"/><use xlink:href="#I" transform="matrix(1,0,0,1,1040.2218751184887,393.0168746744083) translate(0 14.4)"/><path d="M976.7 741.97V820H992c0-2.76 2.24-5 5-5s5 2.24 5 5h265.47c0-2.76 2.24-5 5-5s5 2.24 5 5h106.18v-10.5M976.7 742v-1.03" stroke="#000" stroke-width="2" fill="none"/><path d="M1383.65 794.24l4.64 14.26H1379z" stroke="#000" stroke-width="2"/><path d="M1163.54 450.88l2.13 2.9.15 1h52.2v209.5l2.58.83 2.12 2.92.33 2.06-1.14 3.5-2.9 2.1-.98.17v138.42l2.58.84 2.12 2.92.33 2.06-1.14 3.5-2.9 2.1-.98.17v4.64h-2v-6.35l2.2-.35 2-1.46.78-2.42-.18-1.1-1.46-2-3.34-1.1V674.16l2.2-.35 2-1.46.78-2.42-.18-1.1-1.46-2-3.34-1.1V456.78h-51.9l-.35-2.2-1.46-2-2.4-.78-1.1.17-2 1.46-1.1 3.34h-21.55l-.35-2.2-1.46-2-2.42-.78-1.1.17-2 1.46-1.1 3.34H991.4v-2h132.87l.84-2.57 2.92-2.13 2.06-.33 3.5 1.14 2.1 2.9.17 1h18.4l.84-2.58 2.9-2.13 2.05-.33z" fill="#0c7cba"/><path d="M991.42 456.77h-2.23l2.22-1.86zM1217.02 845.76l-4.63-14.27h9.26z" fill="#0c7cba"/><path d="M1217.02 849l-6-18.5h12.02zm-3.25-16.5l3.25 10.02 3.26-10.03z" fill="#0c7cba"/><use xlink:href="#J" transform="matrix(1,0,0,1,1013.4136012929839,430.1673911858065) translate(0 14.4)"/><path d="M886.4 447.9H701v56.25l2.57.84 2.12 2.9.33 2.05-1.14 3.5-2.92 2.12-.98.16V641.3l2.57.84 2.12 2.9.33 2.06-1.14 3.5-2.92 2.12-.98.16v130.17h2.46v2H699V651.17l2.18-.35 2-1.46.8-2.42-.18-1.1-1.46-2-3.34-1.1V514.03l2.18-.35 2-1.46.8-2.4-.18-1.1-1.46-2-3.34-1.1v-59.7h187.4z" fill="#0c7cba"/><path d="M886.95 446.27l1.14 1.62h-1.74v-2h.37zM718.73 784.05l-14.27 4.63v-9.27z" fill="#0c7cba"/><path d="M721.97 784.05l-18.5 6v-12zm-16.5 3.26l10.02-3.25-10.04-3.26z" fill="#0c7cba"/><use xlink:href="#K" transform="matrix(1,0,0,1,853.8162503563581,450.8940591150756) translate(0 14.4)"/><path d="M442 693.55h58.5" stroke="#000" stroke-width="2" fill="none"/><path d="M442.03 694.55H441v-2h1.03z"/><path d="M515.76 693.55l-14.26 4.64v-9.28z" stroke="#000" stroke-width="2"/><use xlink:href="#L" transform="matrix(1,0,0,1,477.27708039716873,667.9523587517722) translate(0 14.4)"/><path d="M280 587.02h160v120H280z" stroke="#000" stroke-width="2" fill="#fff"/><use xlink:href="#M" transform="matrix(1,0,0,1,285,592.0248320776847) translate(6.125 58.6)"/><use xlink:href="#N" transform="matrix(1,0,0,1,285,592.0248320776847) translate(79.97500000000001 58.6)"/><path d="M832.8 428.28H431.53v139.24h-2V426.28h403.3zm48.32 0h-23.67v-2h23.67z" fill="#0c7cba"/><path d="M882.07 427.66l-.02.62h-.96v-2h1.15zM430.52 582.8l-4.64-14.28h9.27z" fill="#0c7cba"/><path d="M430.52 586.02l-6-18.5h12zm-3.26-16.5l3.26 10.03 3.26-10.03z" fill="#0c7cba"/><use xlink:href="#O" transform="matrix(1,0,0,1,832.8056546934008,416.6135297499064) translate(0 14.222222222222223)"/><path d="M787 411.8H415.08V567.5h-2V409.8H787zm101.05 0h-76.4v-2h76.4z" fill="#0c7cba"/><path d="M889.02 410.82l-.7.97h-.3v-2h1.9zM414.07 582.8l-4.63-14.28h9.27z" fill="#0c7cba"/><path d="M414.07 586.02l-6-18.5h12zm-3.26-16.5l3.27 10.03 3.26-10.03z" fill="#0c7cba"/><use xlink:href="#P" transform="matrix(1,0,0,1,787.0140060887571,400.12189244091223) translate(0 14.222222222222223)"/><path d="M767.24 396.28H399.8v171.24h-2V394.28h369.44zm142.27 0H789.9v-2h119.6z" fill="#0c7cba"/><path d="M910.23 395.4l-.75.34v-1.46h3.67zM398.8 582.8l-4.64-14.28h9.28z" fill="#0c7cba"/><path d="M398.8 586.02l-6-18.5h12zm-3.26-16.5l3.26 10.03 3.26-10.03z" fill="#0c7cba"/><use xlink:href="#Q" transform="matrix(1,0,0,1,767.239380963202,384.61434774383173) translate(0 14.222222222222223)"/><path d="M1347 759.94h74.05v26.6H1347z" stroke="#000" stroke-opacity="0" stroke-width="2" fill="#fff" fill-opacity="0"/><use xlink:href="#j" transform="matrix(1,0,0,1,1352,764.9372481165269) translate(3.5249999999999986 14.4)"/><use xlink:href="#R" transform="matrix(1,0,0,1,1352,764.9372481165269) translate(46.475 14.4)"/><path d="M1330 656.7h74.05v26.6H1330z" stroke="#000" stroke-opacity="0" stroke-width="2" fill="#fff" fill-opacity="0"/><use xlink:href="#S" transform="matrix(1,0,0,1,1335,661.7) translate(-0.4750000000000014 14.4)"/><path d="M1431 656.7h48.1v26.6H1431z" stroke="#000" stroke-opacity="0" stroke-width="2" fill="#fff" fill-opacity="0"/><use xlink:href="#T" transform="matrix(1,0,0,1,1436,661.7) translate(5 14.4)"/><path d="M520 680.42h74.05v26.6H520z" stroke="#000" stroke-opacity="0" stroke-width="2" fill="#fff" fill-opacity="0"/><use xlink:href="#S" transform="matrix(1,0,0,1,525,685.4248320776848) translate(-0.4750000000000014 14.4)"/><path d="M594.95 633.72H669v26.6h-74.05z" stroke="#000" stroke-opacity="0" stroke-width="2" fill="#fff" fill-opacity="0"/><use xlink:href="#U" transform="matrix(1,0,0,1,599.9503358446307,638.7248320776847) translate(-8.950000000000003 14.4)"/><path d="M523 739.3h160v27.64H523z" stroke="#000" stroke-opacity="0" stroke-width="2" fill="#fff" fill-opacity="0"/><g><use xlink:href="#V" transform="matrix(1,0,0,1,528,744.3006716892613) translate(8.275000000000006 14.4)"/><use xlink:href="#W" transform="matrix(1,0,0,1,528,744.3006716892613) translate(97.12500000000001 14.4)"/></g><path d="M900 576h54.98v26.6H900z" stroke="#000" stroke-opacity="0" stroke-width="2" fill="#fff" fill-opacity="0"/><g><use xlink:href="#C" transform="matrix(1,0,0,1,900,575.9999999999999) translate(1.2592592592592595 16.166666666666668)"/><use xlink:href="#X" transform="matrix(1,0,0,1,900,575.9999999999999) translate(21.962962962962962 16.166666666666668)"/></g><path d="M900 723.24h53.95v26.6H900z" stroke="#000" stroke-opacity="0" stroke-width="2" fill="#fff" fill-opacity="0"/><g><use xlink:href="#E" transform="matrix(1,0,0,1,900,723.237248116527) translate(0.2592592592592595 16.166666666666668)"/><use xlink:href="#X" transform="matrix(1,0,0,1,900,723.237248116527) translate(20.962962962962962 16.166666666666668)"/></g><path d="M1198 884.05H771.34V845c-2.76 0-5-2.25-5-5 0-2.77 2.24-5 5-5v-14.42M1197.97 884.05h1.03" stroke="#000" stroke-width="2" fill="none"/><path d="M771.34 805.3l4.63 14.28h-9.27z" stroke="#000" stroke-width="2"/><path d="M804 692h120v26.6H804z" stroke="#000" stroke-opacity="0" stroke-width="2" fill="#fff" fill-opacity="0"/><g><use xlink:href="#Y" transform="matrix(1,0,0,1,804,692) translate(0 16.166666666666668)"/><use xlink:href="#D" transform="matrix(1,0,0,1,804,692) translate(34.44444444444445 16.166666666666668)"/></g><defs><path d="M160-131c35 5 61 23 61 61C221 17 115-2 30 0v-248c76 3 177-17 177 60 0 33-19 50-47 57zm-97-11c50-1 110 9 110-42 0-47-63-36-110-37v79zm0 115c55-2 124 14 124-45 0-56-70-42-124-44v89" id="Z"/><path d="M30-248c118-7 216 8 213 122C240-48 200 0 122 0H30v-248zM63-27c89 8 146-16 146-99s-60-101-146-95v194" id="aa"/><path d="M30 0v-248h187v28H63v79h144v27H63v87h162V0H30" id="ab"/><path d="M185-189c-5-48-123-54-124 2 14 75 158 14 163 119 3 78-121 87-175 55-17-10-28-26-33-46l33-7c5 56 141 63 141-1 0-78-155-14-162-118-5-82 145-84 179-34 5 7 8 16 11 25" id="ac"/><path d="M127-220V0H93v-220H8v-28h204v28h-85" id="ad"/><g id="a"><use transform="matrix(0.05,0,0,0.05,0,0)" xlink:href="#Z"/><use transform="matrix(0.05,0,0,0.05,12,0)" xlink:href="#aa"/><use transform="matrix(0.05,0,0,0.05,24.950000000000003,0)" xlink:href="#ab"/><use transform="matrix(0.05,0,0,0.05,36.95,0)" xlink:href="#ac"/><use transform="matrix(0.05,0,0,0.05,48.95,0)" xlink:href="#ad"/></g><path d="M205 0l-28-72H64L36 0H1l101-248h38L239 0h-34zm-38-99l-47-123c-12 45-31 82-46 123h93" id="ae"/><path d="M30 0v-248h33v221h125V0H30" id="af"/><path d="M232-93c-1 65-40 97-104 97C67 4 28-28 28-90v-158h33c8 89-33 224 67 224 102 0 64-133 71-224h33v155" id="ag"/><g id="c"><use transform="matrix(0.05,0,0,0.05,0,0)" xlink:href="#ae"/><use transform="matrix(0.05,0,0,0.05,12,0)" xlink:href="#af"/><use transform="matrix(0.05,0,0,0.05,22,0)" xlink:href="#ag"/></g><g id="d"><use transform="matrix(0.04938271604938272,0,0,0.04938271604938272,0,0)" xlink:href="#ae"/><use transform="matrix(0.04938271604938272,0,0,0.04938271604938272,11.851851851851853,0)" xlink:href="#af"/><use transform="matrix(0.04938271604938272,0,0,0.04938271604938272,21.7283950617284,0)" xlink:href="#ag"/></g><path d="M233-177c-1 41-23 64-60 70L243 0h-38l-65-103H63V0H30v-248c88 3 205-21 203 71zM63-129c60-2 137 13 137-47 0-61-80-42-137-45v92" id="ah"/><path d="M100-194c63 0 86 42 84 106H49c0 40 14 67 53 68 26 1 43-12 49-29l28 8c-11 28-37 45-77 45C44 4 14-33 15-96c1-61 26-98 85-98zm52 81c6-60-76-77-97-28-3 7-6 17-6 28h103" id="ai"/><path d="M135-143c-3-34-86-38-87 0 15 53 115 12 119 90S17 21 10-45l28-5c4 36 97 45 98 0-10-56-113-15-118-90-4-57 82-63 122-42 12 7 21 19 24 35" id="aj"/><path d="M84 4C-5 8 30-112 23-190h32v120c0 31 7 50 39 49 72-2 45-101 50-169h31l1 190h-30c-1-10 1-25-2-33-11 22-28 36-60 37" id="ak"/><path d="M24 0v-261h32V0H24" id="al"/><path d="M59-47c-2 24 18 29 38 22v24C64 9 27 4 27-40v-127H5v-23h24l9-43h21v43h35v23H59v120" id="am"/><g id="e"><use transform="matrix(0.04938271604938272,0,0,0.04938271604938272,0,0)" xlink:href="#ah"/><use transform="matrix(0.04938271604938272,0,0,0.04938271604938272,12.790123456790125,0)" xlink:href="#ai"/><use transform="matrix(0.04938271604938272,0,0,0.04938271604938272,22.66666666666667,0)" xlink:href="#aj"/><use transform="matrix(0.04938271604938272,0,0,0.04938271604938272,31.555555555555557,0)" xlink:href="#ak"/><use transform="matrix(0.04938271604938272,0,0,0.04938271604938272,41.4320987654321,0)" xlink:href="#al"/><use transform="matrix(0.04938271604938272,0,0,0.04938271604938272,45.333333333333336,0)" xlink:href="#am"/></g><path d="M209 0H11v-25l151-195H24v-28h176v25L50-27h159V0" id="an"/><use transform="matrix(0.05,0,0,0.05,0,0)" xlink:href="#an" id="f"/><path d="M190 0L58-211 59 0H30v-248h39L202-35l-2-213h31V0h-41" id="ao"/><use transform="matrix(0.05,0,0,0.05,0,0)" xlink:href="#ao" id="g"/><path d="M177-190C167-65 218 103 67 71c-23-6-38-20-44-43l32-5c15 47 100 32 89-28v-30C133-14 115 1 83 1 29 1 15-40 15-95c0-56 16-97 71-98 29-1 48 16 59 35 1-10 0-23 2-32h30zM94-22c36 0 50-32 50-73 0-42-14-75-50-75-39 0-46 34-46 75s6 73 46 73" id="ap"/><path d="M24-231v-30h32v30H24zM24 0v-190h32V0H24" id="aq"/><path d="M114-163C36-179 61-72 57 0H25l-1-190h30c1 12-1 29 2 39 6-27 23-49 58-41v29" id="ar"/><g id="h"><use transform="matrix(0.05,0,0,0.05,0,0)" xlink:href="#ah"/><use transform="matrix(0.05,0,0,0.05,12.950000000000001,0)" xlink:href="#ai"/><use transform="matrix(0.05,0,0,0.05,22.950000000000003,0)" xlink:href="#ap"/><use transform="matrix(0.05,0,0,0.05,32.95,0)" xlink:href="#aq"/><use transform="matrix(0.05,0,0,0.05,36.900000000000006,0)" xlink:href="#aj"/><use transform="matrix(0.05,0,0,0.05,45.900000000000006,0)" xlink:href="#am"/><use transform="matrix(0.05,0,0,0.05,50.900000000000006,0)" xlink:href="#ai"/><use transform="matrix(0.05,0,0,0.05,60.900000000000006,0)" xlink:href="#ar"/><use transform="matrix(0.05,0,0,0.05,66.85000000000001,0)" xlink:href="#aj"/></g><path d="M27 0v-27h64v-190l-56 39v-29l58-41h29v221h61V0H27" id="as"/><g id="i"><use transform="matrix(0.05,0,0,0.05,0,0)" xlink:href="#ah"/><use transform="matrix(0.05,0,0,0.05,12.950000000000001,0)" xlink:href="#as"/></g><path d="M141-36C126-15 110 5 73 4 37 3 15-17 15-53c-1-64 63-63 125-63 3-35-9-54-41-54-24 1-41 7-42 31l-33-3c5-37 33-52 76-52 45 0 72 20 72 64v82c-1 20 7 32 28 27v20c-31 9-61-2-59-35zM48-53c0 20 12 33 32 33 41-3 63-29 60-74-43 2-92-5-92 41" id="at"/><g id="j"><use transform="matrix(0.05,0,0,0.05,0,0)" xlink:href="#aa"/><use transform="matrix(0.05,0,0,0.05,12.950000000000001,0)" xlink:href="#at"/><use transform="matrix(0.05,0,0,0.05,22.950000000000003,0)" xlink:href="#am"/><use transform="matrix(0.05,0,0,0.05,27.950000000000003,0)" xlink:href="#at"/></g><path d="M240 0l2-218c-23 76-54 145-80 218h-23L58-218 59 0H30v-248h44l77 211c21-75 51-140 76-211h43V0h-30" id="au"/><path d="M210-169c-67 3-38 105-44 169h-31v-121c0-29-5-50-35-48C34-165 62-65 56 0H25l-1-190h30c1 10-1 24 2 32 10-44 99-50 107 0 11-21 27-35 58-36 85-2 47 119 55 194h-31v-121c0-29-5-49-35-48" id="av"/><path d="M100-194c62-1 85 37 85 99 1 63-27 99-86 99S16-35 15-95c0-66 28-99 85-99zM99-20c44 1 53-31 53-75 0-43-8-75-51-75s-53 32-53 75 10 74 51 75" id="aw"/><path d="M179-190L93 31C79 59 56 82 12 73V49c39 6 53-20 64-50L1-190h34L92-34l54-156h33" id="ax"/><g id="k"><use transform="matrix(0.05,0,0,0.05,0,0)" xlink:href="#au"/><use transform="matrix(0.05,0,0,0.05,14.950000000000001,0)" xlink:href="#ai"/><use transform="matrix(0.05,0,0,0.05,24.950000000000003,0)" xlink:href="#av"/><use transform="matrix(0.05,0,0,0.05,39.900000000000006,0)" xlink:href="#aw"/><use transform="matrix(0.05,0,0,0.05,49.900000000000006,0)" xlink:href="#ar"/><use transform="matrix(0.05,0,0,0.05,55.85,0)" xlink:href="#ax"/></g><path d="M101-251c82-7 93 87 43 132L82-64C71-53 59-42 53-27h129V0H18c2-99 128-94 128-182 0-28-16-43-45-43s-46 15-49 41l-32-3c6-41 34-60 81-64" id="ay"/><g id="l"><use transform="matrix(0.05,0,0,0.05,0,0)" xlink:href="#ah"/><use transform="matrix(0.05,0,0,0.05,12.950000000000001,0)" xlink:href="#ay"/></g><g id="m"><use transform="matrix(0.05,0,0,0.05,0,0)" xlink:href="#au"/><use transform="matrix(0.05,0,0,0.05,14.950000000000001,0)" xlink:href="#ai"/><use transform="matrix(0.05,0,0,0.05,24.950000000000003,0)" xlink:href="#av"/></g><path d="M140-251c81 0 123 46 123 126C263-46 219 4 140 4 59 4 17-45 17-125s42-126 123-126zm0 227c63 0 89-41 89-101s-29-99-89-99c-61 0-89 39-89 99S79-25 140-24" id="az"/><g id="n"><use transform="matrix(0.05,0,0,0.05,0,0)" xlink:href="#az"/><use transform="matrix(0.05,0,0,0.05,14,0)" xlink:href="#ak"/><use transform="matrix(0.05,0,0,0.05,24,0)" xlink:href="#am"/></g><path d="M195 0l-74-108L45 0H8l94-129-87-119h37l69 98 67-98h37l-84 118L233 0h-38" id="aA"/><g id="o"><use transform="matrix(0.03703703703703704,0,0,0.03703703703703704,0,0)" xlink:href="#au"/><use transform="matrix(0.03703703703703704,0,0,0.03703703703703704,11.074074074074076,0)" xlink:href="#ag"/><use transform="matrix(0.03703703703703704,0,0,0.03703703703703704,20.666666666666668,0)" xlink:href="#aA"/></g><path d="M101-251c68 0 85 55 85 127S166 4 100 4C33 4 14-52 14-124c0-73 17-127 87-127zm-1 229c47 0 54-49 54-102s-4-102-53-102c-51 0-55 48-55 102 0 53 5 102 54 102" id="aB"/><use transform="matrix(0.03703703703703704,0,0,0.03703703703703704,0,0)" xlink:href="#aB" id="p"/><use transform="matrix(0.03703703703703704,0,0,0.03703703703703704,0,0)" xlink:href="#as" id="q"/><path d="M33 0v-248h34V0H33" id="aC"/><path d="M117-194c89-4 53 116 60 194h-32v-121c0-31-8-49-39-48C34-167 62-67 57 0H25l-1-190h30c1 10-1 24 2 32 11-22 29-35 61-36" id="aD"/><path d="M96-169c-40 0-48 33-48 73s9 75 48 75c24 0 41-14 43-38l32 2c-6 37-31 61-74 61-59 0-76-41-82-99-10-93 101-131 147-64 4 7 5 14 7 22l-32 3c-4-21-16-35-41-35" id="aE"/><g id="r"><use transform="matrix(0.05,0,0,0.05,0,0)" xlink:href="#aC"/><use transform="matrix(0.05,0,0,0.05,5,0)" xlink:href="#aD"/><use transform="matrix(0.05,0,0,0.05,15,0)" xlink:href="#aj"/><use transform="matrix(0.05,0,0,0.05,24,0)" xlink:href="#am"/><use transform="matrix(0.05,0,0,0.05,29,0)" xlink:href="#ar"/><use transform="matrix(0.05,0,0,0.05,34.95,0)" xlink:href="#ak"/><use transform="matrix(0.05,0,0,0.05,44.95,0)" xlink:href="#aE"/><use transform="matrix(0.05,0,0,0.05,53.95,0)" xlink:href="#am"/><use transform="matrix(0.05,0,0,0.05,58.95,0)" xlink:href="#aq"/><use transform="matrix(0.05,0,0,0.05,62.900000000000006,0)" xlink:href="#aw"/><use transform="matrix(0.05,0,0,0.05,72.9,0)" xlink:href="#aD"/></g><g id="s"><use transform="matrix(0.05,0,0,0.05,0,0)" xlink:href="#ah"/><use transform="matrix(0.05,0,0,0.05,12.950000000000001,0)" xlink:href="#aq"/></g><path d="M24-231v-30h32v30H24zM-9 49c24 4 33-6 33-30v-209h32V24c2 40-23 58-65 49V49" id="aF"/><g id="t"><use transform="matrix(0.05,0,0,0.05,0,0)" xlink:href="#ah"/><use transform="matrix(0.05,0,0,0.05,12.950000000000001,0)" xlink:href="#aF"/></g><path d="M115-194c55 1 70 41 70 98S169 2 115 4C84 4 66-9 55-30l1 105H24l-1-265h31l2 30c10-21 28-34 59-34zm-8 174c40 0 45-34 45-75s-6-73-45-74c-42 0-51 32-51 76 0 43 10 73 51 73" id="aG"/><path d="M212-179c-10-28-35-45-73-45-59 0-87 40-87 99 0 60 29 101 89 101 43 0 62-24 78-52l27 14C228-24 195 4 139 4 59 4 22-46 18-125c-6-104 99-153 187-111 19 9 31 26 39 46" id="aH"/><path d="M85-194c31 0 48 13 60 33l-1-100h32l1 261h-30c-2-10 0-23-3-31C134-8 116 4 85 4 32 4 16-35 15-94c0-66 23-100 70-100zm9 24c-40 0-46 34-46 75 0 40 6 74 45 74 42 0 51-32 51-76 0-42-9-74-50-73" id="aI"/><g id="u"><use transform="matrix(0.05,0,0,0.05,0,0)" xlink:href="#az"/><use transform="matrix(0.05,0,0,0.05,14,0)" xlink:href="#aG"/><use transform="matrix(0.05,0,0,0.05,24,0)" xlink:href="#aH"/><use transform="matrix(0.05,0,0,0.05,36.95,0)" xlink:href="#aw"/><use transform="matrix(0.05,0,0,0.05,46.95,0)" xlink:href="#aI"/><use transform="matrix(0.05,0,0,0.05,56.95,0)" xlink:href="#ai"/></g><path fill="#0c7cba" d="M212-179c-10-28-35-45-73-45-59 0-87 40-87 99 0 60 29 101 89 101 43 0 62-24 78-52l27 14C228-24 195 4 139 4 59 4 22-46 18-125c-6-104 99-153 187-111 19 9 31 26 39 46" id="aJ"/><path fill="#0c7cba" d="M100-194c62-1 85 37 85 99 1 63-27 99-86 99S16-35 15-95c0-66 28-99 85-99zM99-20c44 1 53-31 53-75 0-43-8-75-51-75s-53 32-53 75 10 74 51 75" id="aK"/><path fill="#0c7cba" d="M117-194c89-4 53 116 60 194h-32v-121c0-31-8-49-39-48C34-167 62-67 57 0H25l-1-190h30c1 10-1 24 2 32 11-22 29-35 61-36" id="aL"/><path fill="#0c7cba" d="M59-47c-2 24 18 29 38 22v24C64 9 27 4 27-40v-127H5v-23h24l9-43h21v43h35v23H59v120" id="aM"/><path fill="#0c7cba" d="M114-163C36-179 61-72 57 0H25l-1-190h30c1 12-1 29 2 39 6-27 23-49 58-41v29" id="aN"/><path fill="#0c7cba" d="M24 0v-261h32V0H24" id="aO"/><path fill="#0c7cba" d="M100-194c63 0 86 42 84 106H49c0 40 14 67 53 68 26 1 43-12 49-29l28 8c-11 28-37 45-77 45C44 4 14-33 15-96c1-61 26-98 85-98zm52 81c6-60-76-77-97-28-3 7-6 17-6 28h103" id="aP"/><g id="v"><use transform="matrix(0.05,0,0,0.05,0,0)" xlink:href="#aJ"/><use transform="matrix(0.05,0,0,0.05,12.950000000000001,0)" xlink:href="#aK"/><use transform="matrix(0.05,0,0,0.05,22.950000000000003,0)" xlink:href="#aL"/><use transform="matrix(0.05,0,0,0.05,32.95,0)" xlink:href="#aM"/><use transform="matrix(0.05,0,0,0.05,37.95,0)" xlink:href="#aN"/><use transform="matrix(0.05,0,0,0.05,43.900000000000006,0)" xlink:href="#aK"/><use transform="matrix(0.05,0,0,0.05,53.900000000000006,0)" xlink:href="#aO"/><use transform="matrix(0.05,0,0,0.05,57.85,0)" xlink:href="#aO"/><use transform="matrix(0.05,0,0,0.05,61.80000000000001,0)" xlink:href="#aP"/><use transform="matrix(0.05,0,0,0.05,71.80000000000001,0)" xlink:href="#aN"/></g><g id="w"><use transform="matrix(0.05,0,0,0.05,0,0)" xlink:href="#ae"/><use transform="matrix(0.05,0,0,0.05,12,0)" xlink:href="#af"/><use transform="matrix(0.05,0,0,0.05,22,0)" xlink:href="#ag"/></g><g id="x"><use transform="matrix(0.05,0,0,0.05,0,0)" xlink:href="#az"/><use transform="matrix(0.05,0,0,0.05,14,0)" xlink:href="#aG"/></g><path d="M137 0h-34L2-248h35l83 218 83-218h36" id="aQ"/><g id="y"><use transform="matrix(0.05,0,0,0.05,0,0)" xlink:href="#aC"/><use transform="matrix(0.05,0,0,0.05,5,0)" xlink:href="#aQ"/><use transform="matrix(0.05,0,0,0.05,15.65,0)" xlink:href="#ae"/></g><g id="z"><use transform="matrix(0.05,0,0,0.05,0,0)" xlink:href="#aC"/><use transform="matrix(0.05,0,0,0.05,5,0)" xlink:href="#av"/><use transform="matrix(0.05,0,0,0.05,19.950000000000003,0)" xlink:href="#av"/><use transform="matrix(0.05,0,0,0.05,34.900000000000006,0)" xlink:href="#ai"/><use transform="matrix(0.05,0,0,0.05,44.900000000000006,0)" xlink:href="#aI"/><use transform="matrix(0.05,0,0,0.05,54.900000000000006,0)" xlink:href="#aq"/><use transform="matrix(0.05,0,0,0.05,58.85,0)" xlink:href="#at"/><use transform="matrix(0.05,0,0,0.05,68.85000000000001,0)" xlink:href="#am"/><use transform="matrix(0.05,0,0,0.05,73.85000000000001,0)" xlink:href="#ai"/></g><g id="A"><use transform="matrix(0.05,0,0,0.05,0,0)" xlink:href="#aQ"/><use transform="matrix(0.05,0,0,0.05,10.65,0)" xlink:href="#at"/><use transform="matrix(0.05,0,0,0.05,20.65,0)" xlink:href="#al"/><use transform="matrix(0.05,0,0,0.05,24.599999999999998,0)" xlink:href="#ak"/><use transform="matrix(0.05,0,0,0.05,34.599999999999994,0)" xlink:href="#ai"/></g><g id="B"><use transform="matrix(0.05,0,0,0.05,0,0)" xlink:href="#ah"/><use transform="matrix(0.05,0,0,0.05,12.950000000000001,0)" xlink:href="#aI"/></g><g id="C"><use transform="matrix(0.03703703703703704,0,0,0.03703703703703704,0,0)" xlink:href="#ah"/><use transform="matrix(0.03703703703703704,0,0,0.03703703703703704,9.592592592592593,0)" xlink:href="#as"/></g><g id="D"><use transform="matrix(0.03703703703703704,0,0,0.03703703703703704,0,0)" xlink:href="#ae"/><use transform="matrix(0.03703703703703704,0,0,0.03703703703703704,8.88888888888889,0)" xlink:href="#aI"/><use transform="matrix(0.03703703703703704,0,0,0.03703703703703704,16.296296296296298,0)" xlink:href="#aI"/><use transform="matrix(0.03703703703703704,0,0,0.03703703703703704,23.703703703703706,0)" xlink:href="#ar"/><use transform="matrix(0.03703703703703704,0,0,0.03703703703703704,28.111111111111114,0)" xlink:href="#ai"/><use transform="matrix(0.03703703703703704,0,0,0.03703703703703704,35.51851851851852,0)" xlink:href="#aj"/><use transform="matrix(0.03703703703703704,0,0,0.03703703703703704,42.18518518518519,0)" xlink:href="#aj"/></g><g id="E"><use transform="matrix(0.03703703703703704,0,0,0.03703703703703704,0,0)" xlink:href="#ah"/><use transform="matrix(0.03703703703703704,0,0,0.03703703703703704,9.592592592592593,0)" xlink:href="#ay"/></g><g id="F"><use transform="matrix(0.03703703703703704,0,0,0.03703703703703704,0,0)" xlink:href="#aa"/><use transform="matrix(0.03703703703703704,0,0,0.03703703703703704,9.592592592592593,0)" xlink:href="#at"/><use transform="matrix(0.03703703703703704,0,0,0.03703703703703704,17,0)" xlink:href="#am"/><use transform="matrix(0.03703703703703704,0,0,0.03703703703703704,20.703703703703702,0)" xlink:href="#at"/></g><g id="G"><use transform="matrix(0.03703703703703704,0,0,0.03703703703703704,0,0)" xlink:href="#aC"/><use transform="matrix(0.03703703703703704,0,0,0.03703703703703704,3.703703703703704,0)" xlink:href="#aD"/></g><path d="M266 0h-40l-56-210L115 0H75L2-248h35L96-30l15-64 43-154h32l59 218 59-218h35" id="aR"/><g id="H"><use transform="matrix(0.05,0,0,0.05,0,0)" xlink:href="#ah"/><use transform="matrix(0.05,0,0,0.05,12.600000000000001,0)" xlink:href="#aR"/></g><g id="I"><use transform="matrix(0.05,0,0,0.05,0,0)" xlink:href="#au"/><use transform="matrix(0.05,0,0,0.05,14.950000000000001,0)" xlink:href="#aR"/></g><g id="J"><use transform="matrix(0.05,0,0,0.05,0,0)" xlink:href="#au"/><use transform="matrix(0.05,0,0,0.05,14.950000000000001,0)" xlink:href="#ad"/><use transform="matrix(0.05,0,0,0.05,25.900000000000002,0)" xlink:href="#ah"/></g><g id="K"><use transform="matrix(0.05,0,0,0.05,0,0)" xlink:href="#ah"/><use transform="matrix(0.05,0,0,0.05,12.950000000000001,0)" xlink:href="#aa"/><use transform="matrix(0.05,0,0,0.05,25.900000000000002,0)" xlink:href="#ac"/></g><path d="M30-248c87 1 191-15 191 75 0 78-77 80-158 76V0H30v-248zm33 125c57 0 124 11 124-50 0-59-68-47-124-48v98" id="aS"/><g id="L"><use transform="matrix(0.05,0,0,0.05,0,0)" xlink:href="#aS"/><use transform="matrix(0.05,0,0,0.05,12,0)" xlink:href="#aH"/></g><g id="M"><use transform="matrix(0.05,0,0,0.05,0,0)" xlink:href="#aS"/><use transform="matrix(0.05,0,0,0.05,12,0)" xlink:href="#ar"/><use transform="matrix(0.05,0,0,0.05,17.95,0)" xlink:href="#aw"/><use transform="matrix(0.05,0,0,0.05,27.950000000000003,0)" xlink:href="#ap"/><use transform="matrix(0.05,0,0,0.05,37.95,0)" xlink:href="#ar"/><use transform="matrix(0.05,0,0,0.05,43.900000000000006,0)" xlink:href="#at"/><use transform="matrix(0.05,0,0,0.05,53.900000000000006,0)" xlink:href="#av"/></g><g id="N"><use transform="matrix(0.05,0,0,0.05,0,0)" xlink:href="#aH"/><use transform="matrix(0.05,0,0,0.05,12.950000000000001,0)" xlink:href="#aw"/><use transform="matrix(0.05,0,0,0.05,22.950000000000003,0)" xlink:href="#ak"/><use transform="matrix(0.05,0,0,0.05,32.95,0)" xlink:href="#aD"/><use transform="matrix(0.05,0,0,0.05,42.95,0)" xlink:href="#am"/><use transform="matrix(0.05,0,0,0.05,47.95,0)" xlink:href="#ai"/><use transform="matrix(0.05,0,0,0.05,57.95,0)" xlink:href="#ar"/></g><g id="O"><use transform="matrix(0.04938271604938272,0,0,0.04938271604938272,0,0)" xlink:href="#ag"/><use transform="matrix(0.04938271604938272,0,0,0.04938271604938272,12.790123456790125,0)" xlink:href="#Z"/></g><g id="P"><use transform="matrix(0.04938271604938272,0,0,0.04938271604938272,0,0)" xlink:href="#ao"/><use transform="matrix(0.04938271604938272,0,0,0.04938271604938272,12.790123456790125,0)" xlink:href="#Z"/></g><g id="Q"><use transform="matrix(0.04938271604938272,0,0,0.04938271604938272,0,0)" xlink:href="#an"/><use transform="matrix(0.04938271604938272,0,0,0.04938271604938272,10.814814814814815,0)" xlink:href="#Z"/></g><g id="R"><use transform="matrix(0.05,0,0,0.05,0,0)" xlink:href="#aC"/><use transform="matrix(0.05,0,0,0.05,5,0)" xlink:href="#aD"/></g><g id="S"><use transform="matrix(0.05,0,0,0.05,0,0)" xlink:href="#ae"/><use transform="matrix(0.05,0,0,0.05,12,0)" xlink:href="#aI"/><use transform="matrix(0.05,0,0,0.05,22,0)" xlink:href="#aI"/><use transform="matrix(0.05,0,0,0.05,32,0)" xlink:href="#ar"/><use transform="matrix(0.05,0,0,0.05,37.95,0)" xlink:href="#ai"/><use transform="matrix(0.05,0,0,0.05,47.95,0)" xlink:href="#aj"/><use transform="matrix(0.05,0,0,0.05,56.95,0)" xlink:href="#aj"/></g><g id="T"><use transform="matrix(0.05,0,0,0.05,0,0)" xlink:href="#az"/><use transform="matrix(0.05,0,0,0.05,14,0)" xlink:href="#ak"/><use transform="matrix(0.05,0,0,0.05,24,0)" xlink:href="#am"/></g><g id="U"><use transform="matrix(0.05,0,0,0.05,0,0)" xlink:href="#aC"/><use transform="matrix(0.05,0,0,0.05,5,0)" xlink:href="#aD"/><use transform="matrix(0.05,0,0,0.05,15,0)" xlink:href="#aj"/><use transform="matrix(0.05,0,0,0.05,24,0)" xlink:href="#am"/><use transform="matrix(0.05,0,0,0.05,29,0)" xlink:href="#ar"/><use transform="matrix(0.05,0,0,0.05,34.95,0)" xlink:href="#ak"/><use transform="matrix(0.05,0,0,0.05,44.95,0)" xlink:href="#aE"/><use transform="matrix(0.05,0,0,0.05,53.95,0)" xlink:href="#am"/><use transform="matrix(0.05,0,0,0.05,58.95,0)" xlink:href="#aq"/><use transform="matrix(0.05,0,0,0.05,62.900000000000006,0)" xlink:href="#aw"/><use transform="matrix(0.05,0,0,0.05,72.9,0)" xlink:href="#aD"/></g><g id="V"><use transform="matrix(0.05,0,0,0.05,0,0)" xlink:href="#aC"/><use transform="matrix(0.05,0,0,0.05,5,0)" xlink:href="#av"/><use transform="matrix(0.05,0,0,0.05,19.950000000000003,0)" xlink:href="#av"/><use transform="matrix(0.05,0,0,0.05,34.900000000000006,0)" xlink:href="#ai"/><use transform="matrix(0.05,0,0,0.05,44.900000000000006,0)" xlink:href="#aI"/><use transform="matrix(0.05,0,0,0.05,54.900000000000006,0)" xlink:href="#aq"/><use transform="matrix(0.05,0,0,0.05,58.85,0)" xlink:href="#at"/><use transform="matrix(0.05,0,0,0.05,68.85000000000001,0)" xlink:href="#am"/><use transform="matrix(0.05,0,0,0.05,73.85000000000001,0)" xlink:href="#ai"/></g><g id="W"><use transform="matrix(0.05,0,0,0.05,0,0)" xlink:href="#aQ"/><use transform="matrix(0.05,0,0,0.05,10.65,0)" xlink:href="#at"/><use transform="matrix(0.05,0,0,0.05,20.65,0)" xlink:href="#al"/><use transform="matrix(0.05,0,0,0.05,24.599999999999998,0)" xlink:href="#ak"/><use transform="matrix(0.05,0,0,0.05,34.599999999999994,0)" xlink:href="#ai"/></g><g id="X"><use transform="matrix(0.03703703703703704,0,0,0.03703703703703704,0,0)" xlink:href="#aQ"/><use transform="matrix(0.03703703703703704,0,0,0.03703703703703704,7.888888888888889,0)" xlink:href="#at"/><use transform="matrix(0.03703703703703704,0,0,0.03703703703703704,15.296296296296298,0)" xlink:href="#al"/><use transform="matrix(0.03703703703703704,0,0,0.03703703703703704,18.222222222222225,0)" xlink:href="#ak"/><use transform="matrix(0.03703703703703704,0,0,0.03703703703703704,25.629629629629633,0)" xlink:href="#ai"/></g><g id="Y"><use transform="matrix(0.03703703703703704,0,0,0.03703703703703704,0,0)" xlink:href="#aR"/><use transform="matrix(0.03703703703703704,0,0,0.03703703703703704,12.296296296296298,0)" xlink:href="#ar"/><use transform="matrix(0.03703703703703704,0,0,0.03703703703703704,16.703703703703706,0)" xlink:href="#aq"/><use transform="matrix(0.03703703703703704,0,0,0.03703703703703704,19.629629629629633,0)" xlink:href="#am"/><use transform="matrix(0.03703703703703704,0,0,0.03703703703703704,23.333333333333336,0)" xlink:href="#ai"/></g></defs></g></svg>